<?xml version="1.0" standalone="no"?>
<!DOCTYPE svg PUBLIC "-//W3C//DTD SVG 20010904//EN"
 "http://www.w3.org/TR/2001/REC-SVG-20010904/DTD/svg10.dtd">
<svg version="1.0" xmlns="http://www.w3.org/2000/svg"
 width="32.000000pt" height="32.000000pt" viewBox="0 0 32.000000 32.000000"
 preserveAspectRatio="xMidYMid meet">

<g transform="translate(0.000000,32.000000) scale(0.100000,-0.100000)"
fill="#000000" stroke="none">
<path d="M155 290 c-3 -5 -1 -10 4 -10 6 0 11 5 11 10 0 6 -2 10 -4 10 -3 0
-8 -4 -11 -10z"/>
<path d="M140 240 c0 -5 9 -10 20 -10 11 0 20 5 20 10 0 6 -9 10 -20 10 -11 0
-20 -4 -20 -10z"/>
<path d="M260 140 c0 -33 -19 -41 -27 -11 -3 13 -11 17 -24 14 -15 -4 -17 -8
-8 -19 9 -11 5 -14 -25 -14 -29 0 -36 4 -36 19 0 14 -5 18 -20 14 -13 -4 -19
-11 -16 -22 6 -16 -6 -43 -18 -42 -21 3 -26 -2 -26 -24 l0 -26 98 3 97 3 3 28
c2 15 8 27 13 27 5 0 9 18 9 40 0 22 -4 40 -10 40 -5 0 -10 -13 -10 -30z"/>
<path d="M41 128 c-1 -21 4 -38 9 -38 12 0 12 27 0 55 -7 16 -9 13 -9 -17z"/>
</g>
</svg>
